<svg width="1215" height="655" xmlns="http://www.w3.org/2000/svg" xmlns:xlink="http://www.w3.org/1999/xlink" xml:space="preserve" overflow="hidden"><g transform="translate(-425 -115)"><text font-family="Bahnschrift Light,Bahnschrift Light_MSFontService,sans-serif" font-weight="300" font-size="165" transform="matrix(1 0 0 1 1087.5 606)">LABS</text><text font-family="Bahnschrift Light,Bahnschrift Light_MSFontService,sans-serif" font-weight="300" font-size="165" transform="matrix(1 0 0 1 1495.99 606)"> </text><g><g><g><path d="M193.765 387.201C192.158 398.648 188.967 409.04 181.366 417.874 160.348 442.295 118.957 435.922 106.368 406.261 102.088 396.179 102.051 385.958 104.391 375.523 111.391 344.307 118.392 313.092 125.408 281.88 130.374 259.787 135.463 237.722 140.316 215.605 146.56 187.153 152.869 158.716 159.548 130.363 165.042 107.044 185.062 91.0249 208.985 90.9087 231.851 90.7977 247.405 102.167 258.152 121.735 275.473 153.274 293.181 184.601 310.721 216.02 315.227 224.091 319.646 232.211 324.227 240.239 331.044 252.186 345.272 254.267 354.875 244.481 372.528 226.492 389.951 208.277 407.504 190.191 420.841 176.45 434.244 162.776 447.571 149.026 448.733 147.828 451.013 146.781 450.303 144.896 449.5 142.763 447.038 143.625 445.266 143.599 439.433 143.513 433.597 143.612 427.763 143.554 415.543 143.433 406.137 134.11 405.459 121.509 404.831 109.839 413.712 98.8226 425.233 97.6508 435.186 96.6382 445.203 96.2676 455.188 95.5721 469.118 94.6011 483.032 93.2186 496.978 92.712 508.735 92.2853 520.448 90.8776 532.235 91.1656 536.467 91.2687 540.252 93.4108 544.445 93.6935 545.265 93.7484 545.537 94.7352 545.602 95.5179 545.71 96.8324 545.774 98.1541 545.774 99.4732 545.776 132.94 545.779 166.407 545.751 199.875 545.74 212.273 538.19 222.009 526.813 224.425 511.409 227.696 497.57 216.784 497.241 201.071 497.14 196.228 497.18 191.383 497.107 186.54 497.085 185.154 497.302 183.638 495.896 182.644 494.303 182.682 493.695 183.991 492.859 184.947 475.2 205.171 457.552 225.404 439.902 245.637 422.612 265.456 405.324 285.278 388.032 305.096 378.844 315.627 370.031 326.519 360.354 336.579 350.347 346.982 337.48 351.215 323.115 350.134 310.089 349.153 299.002 343.83 290.005 334.219 286.724 330.713 284.444 326.563 281.98 322.544 273.181 308.194 264.543 293.747 255.797 279.364 250.025 269.871 244.242 260.382 238.332 250.973 234.633 245.083 229.864 243.367 224.383 245.655 220.166 247.416 218.405 250.981 217.636 255.178 215.579 266.425 213.562 277.679 211.538 288.932 207.277 312.623 203.032 336.316 198.757 360.004 197.137 368.981 195.451 377.947 193.765 387.201Z" transform="matrix(1.0009 0 0 1 458 209)"/><path d="M535.294 310.257C540.055 335.586 546.13 360.414 549.478 385.689 552.182 406.098 538.036 426.336 516.759 431.45 489.683 437.958 465.263 421.484 460.903 393.809 457.191 370.247 453.525 346.676 449.876 323.103 448.296 312.896 446.41 302.715 445.392 292.45 444.316 281.592 447.881 271.715 454.546 263.237 469.707 243.952 497.502 241.275 516.219 257.178 524.871 264.528 528.746 274.432 530.599 285.367 531.994 293.599 533.691 301.779 535.294 310.257Z" transform="matrix(1.0009 0 0 1 458 209)"/></g></g></g></g></svg>